<mxfile host="app.diagrams.net" modified="2020-09-09T14:28:16.040Z" agent="5.0 (Windows NT 10.0; Win64; x64) AppleWebKit/537.36 (KHTML, like Gecko) Chrome/85.0.4183.83 Safari/537.36" etag="gFg-nLnOJ7-0jHlEOnTu" version="13.3.9" type="github">
  <diagram id="C5RBs43oDa-KdzZeNtuy" name="Setup()">
    <mxGraphModel dx="1422" dy="745" grid="1" gridSize="10" guides="1" tooltips="1" connect="1" arrows="1" fold="1" page="1" pageScale="1" pageWidth="827" pageHeight="1169" math="0" shadow="0">
      <root>
        <mxCell id="WIyWlLk6GJQsqaUBKTNV-0" />
        <mxCell id="WIyWlLk6GJQsqaUBKTNV-1" parent="WIyWlLk6GJQsqaUBKTNV-0" />
        <mxCell id="w3DBZn3IWD6IdvaQdDOi-7" style="edgeStyle=orthogonalEdgeStyle;rounded=0;orthogonalLoop=1;jettySize=auto;html=1;exitX=0.5;exitY=1;exitDx=0;exitDy=0;" edge="1" parent="WIyWlLk6GJQsqaUBKTNV-1" source="WIyWlLk6GJQsqaUBKTNV-3" target="w3DBZn3IWD6IdvaQdDOi-0">
          <mxGeometry relative="1" as="geometry" />
        </mxCell>
        <mxCell id="WIyWlLk6GJQsqaUBKTNV-3" value="Setup" style="rounded=1;whiteSpace=wrap;html=1;fontSize=12;glass=0;strokeWidth=1;shadow=0;" parent="WIyWlLk6GJQsqaUBKTNV-1" vertex="1">
          <mxGeometry x="160" y="80" width="120" height="40" as="geometry" />
        </mxCell>
        <mxCell id="w3DBZn3IWD6IdvaQdDOi-8" style="edgeStyle=orthogonalEdgeStyle;rounded=0;orthogonalLoop=1;jettySize=auto;html=1;exitX=0.5;exitY=1;exitDx=0;exitDy=0;entryX=0.5;entryY=0;entryDx=0;entryDy=0;" edge="1" parent="WIyWlLk6GJQsqaUBKTNV-1" source="w3DBZn3IWD6IdvaQdDOi-0" target="w3DBZn3IWD6IdvaQdDOi-1">
          <mxGeometry relative="1" as="geometry" />
        </mxCell>
        <mxCell id="w3DBZn3IWD6IdvaQdDOi-0" value="Attach servo" style="rounded=1;whiteSpace=wrap;html=1;" vertex="1" parent="WIyWlLk6GJQsqaUBKTNV-1">
          <mxGeometry x="160" y="160" width="120" height="40" as="geometry" />
        </mxCell>
        <mxCell id="w3DBZn3IWD6IdvaQdDOi-9" style="edgeStyle=orthogonalEdgeStyle;rounded=0;orthogonalLoop=1;jettySize=auto;html=1;exitX=0.5;exitY=1;exitDx=0;exitDy=0;entryX=0.5;entryY=0;entryDx=0;entryDy=0;" edge="1" parent="WIyWlLk6GJQsqaUBKTNV-1" source="w3DBZn3IWD6IdvaQdDOi-1" target="w3DBZn3IWD6IdvaQdDOi-2">
          <mxGeometry relative="1" as="geometry" />
        </mxCell>
        <mxCell id="w3DBZn3IWD6IdvaQdDOi-1" value="Attach serial" style="rounded=1;whiteSpace=wrap;html=1;" vertex="1" parent="WIyWlLk6GJQsqaUBKTNV-1">
          <mxGeometry x="160" y="240" width="120" height="40" as="geometry" />
        </mxCell>
        <mxCell id="w3DBZn3IWD6IdvaQdDOi-10" style="edgeStyle=orthogonalEdgeStyle;rounded=0;orthogonalLoop=1;jettySize=auto;html=1;exitX=0.5;exitY=1;exitDx=0;exitDy=0;entryX=0.5;entryY=0;entryDx=0;entryDy=0;" edge="1" parent="WIyWlLk6GJQsqaUBKTNV-1" source="w3DBZn3IWD6IdvaQdDOi-2" target="w3DBZn3IWD6IdvaQdDOi-3">
          <mxGeometry relative="1" as="geometry" />
        </mxCell>
        <mxCell id="w3DBZn3IWD6IdvaQdDOi-2" value="Attach display" style="rounded=1;whiteSpace=wrap;html=1;" vertex="1" parent="WIyWlLk6GJQsqaUBKTNV-1">
          <mxGeometry x="160" y="320" width="120" height="40" as="geometry" />
        </mxCell>
        <mxCell id="w3DBZn3IWD6IdvaQdDOi-11" style="edgeStyle=orthogonalEdgeStyle;rounded=0;orthogonalLoop=1;jettySize=auto;html=1;exitX=0.5;exitY=1;exitDx=0;exitDy=0;entryX=0.5;entryY=0;entryDx=0;entryDy=0;" edge="1" parent="WIyWlLk6GJQsqaUBKTNV-1" source="w3DBZn3IWD6IdvaQdDOi-3" target="w3DBZn3IWD6IdvaQdDOi-4">
          <mxGeometry relative="1" as="geometry" />
        </mxCell>
        <mxCell id="w3DBZn3IWD6IdvaQdDOi-3" value="Connect WiFi" style="rounded=1;whiteSpace=wrap;html=1;" vertex="1" parent="WIyWlLk6GJQsqaUBKTNV-1">
          <mxGeometry x="160" y="400" width="120" height="40" as="geometry" />
        </mxCell>
        <mxCell id="w3DBZn3IWD6IdvaQdDOi-12" style="edgeStyle=orthogonalEdgeStyle;rounded=0;orthogonalLoop=1;jettySize=auto;html=1;exitX=0.5;exitY=1;exitDx=0;exitDy=0;entryX=0.5;entryY=0;entryDx=0;entryDy=0;" edge="1" parent="WIyWlLk6GJQsqaUBKTNV-1" source="w3DBZn3IWD6IdvaQdDOi-4" target="w3DBZn3IWD6IdvaQdDOi-5">
          <mxGeometry relative="1" as="geometry" />
        </mxCell>
        <mxCell id="w3DBZn3IWD6IdvaQdDOi-4" value="Initialize Clock" style="rounded=1;whiteSpace=wrap;html=1;" vertex="1" parent="WIyWlLk6GJQsqaUBKTNV-1">
          <mxGeometry x="160" y="480" width="120" height="40" as="geometry" />
        </mxCell>
        <mxCell id="w3DBZn3IWD6IdvaQdDOi-5" value="Done" style="rounded=1;whiteSpace=wrap;html=1;fontSize=12;glass=0;strokeWidth=1;shadow=0;" vertex="1" parent="WIyWlLk6GJQsqaUBKTNV-1">
          <mxGeometry x="160" y="560" width="120" height="40" as="geometry" />
        </mxCell>
        <mxCell id="w3DBZn3IWD6IdvaQdDOi-13" value="V5" style="text;html=1;strokeColor=none;fillColor=none;align=center;verticalAlign=middle;whiteSpace=wrap;rounded=0;" vertex="1" parent="WIyWlLk6GJQsqaUBKTNV-1">
          <mxGeometry x="200" y="40" width="40" height="20" as="geometry" />
        </mxCell>
        <mxCell id="w3DBZn3IWD6IdvaQdDOi-14" style="edgeStyle=orthogonalEdgeStyle;rounded=0;orthogonalLoop=1;jettySize=auto;html=1;exitX=0.5;exitY=1;exitDx=0;exitDy=0;" edge="1" parent="WIyWlLk6GJQsqaUBKTNV-1" source="w3DBZn3IWD6IdvaQdDOi-15" target="w3DBZn3IWD6IdvaQdDOi-17">
          <mxGeometry relative="1" as="geometry" />
        </mxCell>
        <mxCell id="w3DBZn3IWD6IdvaQdDOi-15" value="Setup" style="rounded=1;whiteSpace=wrap;html=1;fontSize=12;glass=0;strokeWidth=1;shadow=0;" vertex="1" parent="WIyWlLk6GJQsqaUBKTNV-1">
          <mxGeometry x="480" y="80" width="120" height="40" as="geometry" />
        </mxCell>
        <mxCell id="w3DBZn3IWD6IdvaQdDOi-16" style="edgeStyle=orthogonalEdgeStyle;rounded=0;orthogonalLoop=1;jettySize=auto;html=1;exitX=0.5;exitY=1;exitDx=0;exitDy=0;entryX=0.5;entryY=0;entryDx=0;entryDy=0;" edge="1" parent="WIyWlLk6GJQsqaUBKTNV-1" source="w3DBZn3IWD6IdvaQdDOi-17" target="w3DBZn3IWD6IdvaQdDOi-19">
          <mxGeometry relative="1" as="geometry" />
        </mxCell>
        <mxCell id="w3DBZn3IWD6IdvaQdDOi-17" value="Attach servo" style="rounded=1;whiteSpace=wrap;html=1;" vertex="1" parent="WIyWlLk6GJQsqaUBKTNV-1">
          <mxGeometry x="480" y="160" width="120" height="40" as="geometry" />
        </mxCell>
        <mxCell id="w3DBZn3IWD6IdvaQdDOi-18" style="edgeStyle=orthogonalEdgeStyle;rounded=0;orthogonalLoop=1;jettySize=auto;html=1;exitX=0.5;exitY=1;exitDx=0;exitDy=0;entryX=0.5;entryY=0;entryDx=0;entryDy=0;" edge="1" parent="WIyWlLk6GJQsqaUBKTNV-1" source="w3DBZn3IWD6IdvaQdDOi-19" target="w3DBZn3IWD6IdvaQdDOi-21">
          <mxGeometry relative="1" as="geometry" />
        </mxCell>
        <mxCell id="w3DBZn3IWD6IdvaQdDOi-19" value="Attach serial" style="rounded=1;whiteSpace=wrap;html=1;" vertex="1" parent="WIyWlLk6GJQsqaUBKTNV-1">
          <mxGeometry x="480" y="240" width="120" height="40" as="geometry" />
        </mxCell>
        <mxCell id="w3DBZn3IWD6IdvaQdDOi-29" style="edgeStyle=orthogonalEdgeStyle;rounded=0;orthogonalLoop=1;jettySize=auto;html=1;exitX=0.5;exitY=1;exitDx=0;exitDy=0;entryX=0.5;entryY=0;entryDx=0;entryDy=0;" edge="1" parent="WIyWlLk6GJQsqaUBKTNV-1" source="w3DBZn3IWD6IdvaQdDOi-21" target="w3DBZn3IWD6IdvaQdDOi-28">
          <mxGeometry relative="1" as="geometry" />
        </mxCell>
        <mxCell id="w3DBZn3IWD6IdvaQdDOi-21" value="Attach display" style="rounded=1;whiteSpace=wrap;html=1;" vertex="1" parent="WIyWlLk6GJQsqaUBKTNV-1">
          <mxGeometry x="480" y="320" width="120" height="40" as="geometry" />
        </mxCell>
        <mxCell id="w3DBZn3IWD6IdvaQdDOi-22" style="edgeStyle=orthogonalEdgeStyle;rounded=0;orthogonalLoop=1;jettySize=auto;html=1;exitX=0.5;exitY=1;exitDx=0;exitDy=0;entryX=0.5;entryY=0;entryDx=0;entryDy=0;" edge="1" parent="WIyWlLk6GJQsqaUBKTNV-1" source="w3DBZn3IWD6IdvaQdDOi-23" target="w3DBZn3IWD6IdvaQdDOi-25">
          <mxGeometry relative="1" as="geometry" />
        </mxCell>
        <mxCell id="w3DBZn3IWD6IdvaQdDOi-23" value="Connect WiFi" style="rounded=1;whiteSpace=wrap;html=1;" vertex="1" parent="WIyWlLk6GJQsqaUBKTNV-1">
          <mxGeometry x="480" y="480" width="120" height="40" as="geometry" />
        </mxCell>
        <mxCell id="w3DBZn3IWD6IdvaQdDOi-24" style="edgeStyle=orthogonalEdgeStyle;rounded=0;orthogonalLoop=1;jettySize=auto;html=1;exitX=0.5;exitY=1;exitDx=0;exitDy=0;entryX=0.5;entryY=0;entryDx=0;entryDy=0;" edge="1" parent="WIyWlLk6GJQsqaUBKTNV-1" source="w3DBZn3IWD6IdvaQdDOi-25" target="w3DBZn3IWD6IdvaQdDOi-26">
          <mxGeometry relative="1" as="geometry" />
        </mxCell>
        <mxCell id="w3DBZn3IWD6IdvaQdDOi-25" value="Initialize Clock" style="rounded=1;whiteSpace=wrap;html=1;" vertex="1" parent="WIyWlLk6GJQsqaUBKTNV-1">
          <mxGeometry x="480" y="560" width="120" height="40" as="geometry" />
        </mxCell>
        <mxCell id="w3DBZn3IWD6IdvaQdDOi-26" value="Done" style="rounded=1;whiteSpace=wrap;html=1;fontSize=12;glass=0;strokeWidth=1;shadow=0;" vertex="1" parent="WIyWlLk6GJQsqaUBKTNV-1">
          <mxGeometry x="480" y="640" width="120" height="40" as="geometry" />
        </mxCell>
        <mxCell id="w3DBZn3IWD6IdvaQdDOi-27" value="V6" style="text;html=1;strokeColor=none;fillColor=none;align=center;verticalAlign=middle;whiteSpace=wrap;rounded=0;" vertex="1" parent="WIyWlLk6GJQsqaUBKTNV-1">
          <mxGeometry x="520" y="40" width="40" height="20" as="geometry" />
        </mxCell>
        <mxCell id="w3DBZn3IWD6IdvaQdDOi-30" style="edgeStyle=orthogonalEdgeStyle;rounded=0;orthogonalLoop=1;jettySize=auto;html=1;exitX=0.5;exitY=1;exitDx=0;exitDy=0;entryX=0.5;entryY=0;entryDx=0;entryDy=0;" edge="1" parent="WIyWlLk6GJQsqaUBKTNV-1" source="w3DBZn3IWD6IdvaQdDOi-28" target="w3DBZn3IWD6IdvaQdDOi-23">
          <mxGeometry relative="1" as="geometry" />
        </mxCell>
        <mxCell id="w3DBZn3IWD6IdvaQdDOi-28" value="attach Compass" style="rounded=1;whiteSpace=wrap;html=1;" vertex="1" parent="WIyWlLk6GJQsqaUBKTNV-1">
          <mxGeometry x="480" y="400" width="120" height="40" as="geometry" />
        </mxCell>
      </root>
    </mxGraphModel>
  </diagram>
</mxfile>
